<svg width="719" height="208" xmlns="http://www.w3.org/2000/svg" xmlns:xlink="http://www.w3.org/1999/xlink" overflow="hidden"><defs><clipPath id="clip0"><path d="M106 223 825 223 825 431 106 431Z" fill-rule="evenodd" clip-rule="evenodd"/></clipPath><clipPath id="clip1"><path d="M119 337 199 337 199 416 119 416Z" fill-rule="evenodd" clip-rule="evenodd"/></clipPath><clipPath id="clip2"><path d="M119 337 199 337 199 416 119 416Z" fill-rule="evenodd" clip-rule="evenodd"/></clipPath><clipPath id="clip3"><path d="M119 337 199 337 199 416 119 416Z" fill-rule="evenodd" clip-rule="evenodd"/></clipPath></defs><g clip-path="url(#clip0)" transform="translate(-106 -223)"><path d="M212.146 372.989C210.365 370.696 210.678 367.409 212.86 365.495L262.135 321.958C264.417 319.942 264.635 316.455 262.623 314.169 262.471 313.996 262.308 313.833 262.135 313.68L206.739 265 107 339.196 107 420 254.177 420Z" fill="#1F4E79" fill-rule="evenodd"/><path d="M310.152 223 249.733 290.209 279.179 317.434C281.4 319.482 281.544 322.948 279.502 325.175 279.399 325.287 279.291 325.395 279.179 325.499L237.758 364.293C235.541 366.345 235.402 369.811 237.448 372.035 237.724 372.335 238.033 372.603 238.368 372.834L306.556 420 399 420 399 312.125Z" fill="#1F4E79" fill-rule="evenodd"/><rect x="338" y="306" width="478" height="114" fill="#1F4E79"/><text fill="#FFFFFF" font-family="Segoe UI,Segoe UI_MSFontService,sans-serif" font-weight="900" font-size="37" transform="translate(347.93 354)">Toolbox for Streamflow <tspan x="0" y="45">Signatures in Hydrology</tspan></text><g clip-path="url(#clip1)"><g clip-path="url(#clip2)"><g clip-path="url(#clip3)"><path d="M62.5417 49.375 16.4583 49.375 16.4583 21.3958 62.5417 21.3958 62.5417 49.375ZM67.4792 19.75C67.4792 17.9396 65.9979 16.4583 64.1875 16.4583L14.8125 16.4583C13.0021 16.4583 11.5208 17.9396 11.5208 19.75L11.5208 54.3125 67.4792 54.3125 67.4792 19.75Z" fill="#FFFFFF" transform="matrix(1.01266 0 -0 1 119 337)"/><path d="M44.4375 57.6042 44.4375 58.4271C44.4375 58.9208 44.1083 59.25 43.6146 59.25L35.3854 59.25C34.8917 59.25 34.5625 58.9208 34.5625 58.4271L34.5625 57.6042 1.64583 57.6042 1.64583 59.25C1.64583 61.0604 3.12708 62.5417 4.9375 62.5417L74.0625 62.5417C75.8729 62.5417 77.3542 61.0604 77.3542 59.25L77.3542 57.6042 44.4375 57.6042Z" fill="#FFFFFF" transform="matrix(1.01266 0 -0 1 119 337)"/></g></g></g></g></svg>